# xmcd CD database file
# Copyright (C) 1995-1998 Ti Kan
#
# Track frame offsets:
#	150
#	18963
#	37414
#	59441
#	79437
#	100252
#	120367
#	144831
#	166782
#	176967
#	204026
#
# Disc length: 3023 seconds
#
# Revision: 2
# Processed by: cddbd v1.4PL0 Copyright (c) Steve Scherf et al.
# Submitted via: CDex 1.30Release
#
DISCID=8e0bcd0b
DTITLE=Sconosciuto - Sconosciuto
DYEAR=1900
DGENRE=Blues
TTITLE0=Traccia 1
TTITLE1=Traccia 2
TTITLE2=Traccia 3
TTITLE3=Traccia 4
TTITLE4=Traccia 5
TTITLE5=Traccia 6
TTITLE6=Traccia 7
TTITLE7=Traccia 8
TTITLE8=Traccia 9
TTITLE9=Traccia 10
TTITLE10=Traccia 11
EXTD=ID3G:   0
EXTT0=
EXTT1=
EXTT2=
EXTT3=
EXTT4=
EXTT5=
EXTT6=
EXTT7=
EXTT8=
EXTT9=
EXTT10=
PLAYORDER=
